<svg xmlns="http://www.w3.org/2000/svg" viewBox="0 0 1600 900" role="img">
<title>Crest Grid</title>
<style>
.line{fill:none;stroke:#111;stroke-width:3;stroke-linecap:round;stroke-linejoin:round}
.fine{fill:none;stroke:#111;stroke-width:1.6;stroke-linecap:round;stroke-linejoin:round}
.guide{fill:none;stroke:#111;stroke-width:1.2;stroke-dasharray:8 8;opacity:.55}
.label{fill:#111;font-family:Georgia,'Times New Roman',serif;font-size:22px;letter-spacing:3px}
.small{fill:#111;font-family:Georgia,'Times New Roman',serif;font-size:14px;letter-spacing:1.5px}
</style>

<text class="label" x="800" y="85" text-anchor="middle">CREST GRID SYSTEM</text>
<rect class="line" x="430" y="140" width="740" height="650"/>
<path class="guide" d="M504 140V790M578 140V790M652 140V790M726 140V790M800 140V790M874 140V790M948 140V790M1022 140V790M1096 140V790"/>
<path class="guide" d="M430 205H1170M430 270H1170M430 335H1170M430 400H1170M430 465H1170M430 530H1170M430 595H1170M430 660H1170M430 725H1170"/>
<path class="line" d="M590 260H1010V470C1010 600 910 685 800 735C690 685 590 600 590 470Z"/>
</svg>